M48
; DRILL file {KiCad 9.0.7} date 2026-03-14T19:17:08-0600
; FORMAT={-:-/ absolute / metric / decimal}
; #@! TF.CreationDate,2026-03-14T19:17:08-06:00
; #@! TF.GenerationSoftware,Kicad,Pcbnew,9.0.7
; #@! TF.FileFunction,MixedPlating,1,2
FMAT,2
METRIC
; #@! TA.AperFunction,Plated,PTH,ViaDrill
T1C0.600
; #@! TA.AperFunction,Plated,PTH,ComponentDrill
T2C0.710
; #@! TA.AperFunction,Plated,PTH,ComponentDrill
T3C0.750
; #@! TA.AperFunction,Plated,PTH,ComponentDrill
T4C0.800
; #@! TA.AperFunction,Plated,PTH,ComponentDrill
T5C0.991
; #@! TA.AperFunction,Plated,PTH,ComponentDrill
T6C1.000
; #@! TA.AperFunction,Plated,PTH,ComponentDrill
T7C1.016
; #@! TA.AperFunction,Plated,PTH,ComponentDrill
T8C1.100
; #@! TA.AperFunction,Plated,PTH,ComponentDrill
T9C1.300
; #@! TA.AperFunction,Plated,PTH,ComponentDrill
T10C1.330
; #@! TA.AperFunction,Plated,PTH,ComponentDrill
T11C2.000
; #@! TA.AperFunction,Plated,PTH,ComponentDrill
T12C2.200
%
G90
G05
T1
X180.95Y-93.28
X180.95Y-102.03
X183.45Y-102.03
X184.1Y-81.78
X184.1Y-82.88
X184.1Y-83.98
X184.2Y-93.53
X185.2Y-81.78
X185.2Y-82.88
X185.2Y-83.98
X186.3Y-81.78
X186.3Y-82.88
X186.3Y-83.98
T2
X195.9Y-100.85
X197.5Y-95.75
T3
X113.48Y-94.36
X114.75Y-94.36
X116.02Y-94.36
X122.06Y-94.58
X123.33Y-94.58
X124.6Y-94.58
T4
X109.89Y-88.18
X113.0Y-77.19
X113.0Y-84.81
X117.51Y-88.18
X118.49Y-79.98
X118.59Y-75.88
X123.09Y-88.18
X123.19Y-83.78
X126.11Y-79.98
X126.21Y-75.88
X130.1Y-75.28
X130.1Y-80.28
X130.71Y-88.18
X130.81Y-83.78
X167.69Y-72.08
X167.79Y-66.48
X172.49Y-60.68
X175.3Y-91.18
X175.31Y-72.08
X175.41Y-66.48
X176.5Y-99.38
X178.49Y-66.38
X178.68Y-71.88
X179.0Y-99.38
X180.11Y-60.68
X180.3Y-91.18
X183.5Y-54.17
X183.5Y-61.79
X184.7Y-91.28
X185.582Y-99.58
X186.11Y-66.38
X186.3Y-71.88
X188.082Y-99.58
X188.6Y-53.98
X188.6Y-61.6
X189.7Y-91.28
X192.19Y-59.68
X199.81Y-59.68
T5
X133.698Y-57.03
X133.698Y-59.57
X133.698Y-62.11
X133.698Y-64.65
X133.698Y-67.19
X133.698Y-69.73
T6
X134.7Y-91.34
X134.7Y-93.88
X134.7Y-96.42
X134.7Y-98.96
X134.7Y-101.5
X134.7Y-104.04
X168.9Y-78.8
X168.9Y-81.34
X168.9Y-83.88
X168.9Y-86.42
X168.9Y-88.96
X168.9Y-91.5
X168.9Y-94.04
X168.9Y-96.58
X175.46Y-55.5
X178.0Y-55.5
X180.1Y-79.08
X182.64Y-79.08
X185.18Y-79.08
X193.725Y-54.5
X196.265Y-54.5
T7
X139.64Y-61.88
X139.64Y-64.42
X139.64Y-66.96
X139.64Y-69.5
X139.64Y-72.04
X139.64Y-74.58
X139.64Y-77.12
X139.64Y-79.66
X139.64Y-82.2
X139.64Y-84.74
X139.64Y-87.28
X139.64Y-89.82
X139.64Y-92.36
X139.64Y-94.9
X139.64Y-97.44
X162.5Y-61.88
X162.5Y-64.42
X162.5Y-66.96
X162.5Y-69.5
X162.5Y-72.04
X162.5Y-74.58
X162.5Y-77.12
X162.5Y-79.66
X162.5Y-82.2
X162.5Y-84.74
X162.5Y-87.28
X162.5Y-89.82
X162.5Y-92.36
X162.5Y-94.9
X162.5Y-97.44
T8
X196.4Y-81.1
X196.4Y-91.26
X203.12Y-67.78
X203.3Y-73.98
X213.28Y-67.78
X213.46Y-73.98
T9
X102.22Y-104.68
X103.828Y-70.665
X103.828Y-75.745
X103.828Y-80.825
X107.3Y-104.68
X114.92Y-104.68
X120.0Y-104.68
X209.172Y-56.045
X209.172Y-61.125
X209.172Y-96.215
X209.172Y-101.295
X209.373Y-83.445
X209.373Y-88.525
T10
X191.972Y-66.903
X192.25Y-74.75
X194.512Y-66.903
X194.79Y-74.75
X197.052Y-66.903
X197.33Y-74.75
T11
X115.41Y-55.76
X115.41Y-71.0
T12
X95.0Y-50.0
X95.0Y-113.75
X218.25Y-113.75
X218.5Y-50.5
M30
